<?xml version="1.0" encoding="utf-8"?>
<!-- Generator: Adobe Illustrator 26.0.2, SVG Export Plug-In . SVG Version: 6.00 Build 0)  -->
<svg version="1.1" id="Camada_1" xmlns="http://www.w3.org/2000/svg" xmlns:xlink="http://www.w3.org/1999/xlink" x="0px" y="0px"
	 viewBox="0 0 74.94 74.94" style="enable-background:new 0 0 74.94 74.94;" xml:space="preserve">
<style type="text/css">
	.st0{fill-rule:evenodd;clip-rule:evenodd;fill:#020203;}
	.st1{fill:#020203;}
</style>
<g>
	<g>
		<g>
			<path class="st0" d="M32.54,37.62v18.33c0,0.26,0.21,0.48,0.48,0.48h6.81c0.26,0,0.48-0.21,0.48-0.48V37.32h4.94
				c0.25,0,0.45-0.19,0.48-0.44l0.47-5.61c0.02-0.28-0.2-0.52-0.48-0.52h-5.41v-3.98c0-0.93,0.76-1.69,1.69-1.69h3.8
				c0.26,0,0.48-0.21,0.48-0.48v-5.61c0-0.26-0.21-0.48-0.48-0.48h-6.43c-3.77,0-6.83,3.06-6.83,6.83v5.41h-3.4
				c-0.26,0-0.48,0.21-0.48,0.48v5.61c0,0.26,0.21,0.48,0.48,0.48h3.4V37.62z"/>
		</g>
		<path class="st1" d="M37.47,0C16.81,0,0,16.81,0,37.47c0,20.66,16.81,37.47,37.47,37.47c20.66,0,37.47-16.81,37.47-37.47
			C74.94,16.81,58.13,0,37.47,0z M70.13,37.47c0,18.01-14.65,32.66-32.66,32.66C19.46,70.14,4.8,55.48,4.8,37.47
			c0-18.01,14.65-32.67,32.67-32.67C55.48,4.81,70.13,19.46,70.13,37.47z"/>
	</g>
</g>
</svg>
