<?xml version="1.0" encoding="utf-8"?>
<!-- Generator: Adobe Illustrator 26.0.3, SVG Export Plug-In . SVG Version: 6.00 Build 0)  -->
<svg version="1.1" id="Layer_1" xmlns="http://www.w3.org/2000/svg" xmlns:xlink="http://www.w3.org/1999/xlink" x="0px" y="0px"
	 viewBox="0 0 1000 1000" style="enable-background:new 0 0 1000 1000;" xml:space="preserve">
<path d="M862.7,948.4H137.3c-51.2,0-92.8-41.6-92.8-92.8v-439c0-29,13.9-56.8,37.1-74.2L444.3,70.1c32.8-24.6,78.6-24.6,111.4,0
	l362.7,272.2c23.2,17.4,37.1,45.2,37.1,74.2v439C955.5,906.7,913.9,948.4,862.7,948.4z M500,124.1c-4.3,0-8.6,1.3-12.1,4
	L125.2,400.4c-5.1,3.8-8.1,9.8-8.1,16.1v439c0,11.1,9.1,20.2,20.2,20.2h725.4c11.1,0,20.2-9.1,20.2-20.2v-439c0-6.3-3-12.4-8.1-16.1
	L512.1,128.2C508.6,125.5,504.3,124.1,500,124.1z"/>
</svg>
