<?xml version="1.0" encoding="utf-8"?>
<!-- Generator: Adobe Illustrator 26.0.1, SVG Export Plug-In . SVG Version: 6.00 Build 0)  -->
<svg version="1.1" id="Layer_1" xmlns="http://www.w3.org/2000/svg" xmlns:xlink="http://www.w3.org/1999/xlink" x="0px" y="0px"
	 viewBox="0 0 187.3 191.2" style="enable-background:new 0 0 187.3 191.2;" xml:space="preserve">
<style type="text/css">
	.st0{fill:#F7BB17;}
</style>
<path class="st0" d="M179,118.2c-5.5-2.3-11.6-1.1-15.6,3.4c-0.8,0.9-1.4,1-2.5,0.5c-4.6-2.2-17.7-9.8-22.4-11.9
	c-1.3-0.6-1.6-1.1-1.1-2.6c2.9-7.9,3.5-16,1.9-24.2c-3.5-18.5-17.4-32.2-34.1-36.7c-0.3-0.1-0.6-0.2-0.9-0.2c0,0,0,0,0,0
	c-2.9-0.7-5.7-1.1-8.3-1.2v-0.1h-0.1c0.1-5.7,0.2-12.7,0.2-16.6c0-1,0.3-1.4,1.3-1.6c7.5-2.1,11.6-10.3,9-17.7
	c-2.5-7.2-11-11.1-18.1-8.2c-5.4,2.2-8.9,7.5-8.7,13.1c0.2,6,3.9,11,9.6,12.8c1.2,0.4,1.5,0.9,1.5,2.1c0,3.7-0.2,10.7-0.3,16.2h-0.1
	v0.1c-0.7,0-1.5,0.1-2.1,0.2c-3.3,0.3-6.6,1-9.9,2.1c-24.9,8.3-38.1,35.3-29.4,60c0.5,1.4,0.3,2-1.1,2.6
	c-4.7,2.1-16.6,9.7-21.2,11.9c-1.1,0.5-1.7,0.4-2.6-0.5c-3.6-3.8-8.1-5.3-13.2-4.1c-5,1.2-8.4,4.4-10,9.3c-0.2,0.8-0.5,1.5-0.7,2.3
	c0,1.3,0,2.5,0,3.8c0.4,0.3,0.3,0.7,0.4,1.1c1.8,7.3,8.8,11.8,16.2,10.3c7.1-1.4,11.9-8.2,10.8-15.5c-0.2-1.1,0.4-1.4,1.1-1.8
	c4.8-2.2,16.9-9.9,21.7-12.2c1.1-0.5,1.5-0.3,2.1,0.7c3.2,5.6,7.5,10.4,12.7,14.2c0.4,0.3,0.6,0.5,0.7,0.7c1.2,1,3.1,2.2,5.3,3.3
	c0.3,0,0.6,0.1,1.1,0.3c5.2,2.6,10.7,4.2,16.5,4.6c0.9,0.1,1.4,0.3,1.6,0.8v23.7c-0.2,0.5-0.6,0.9-1.5,1.1c-6.3,2-10.4,8.6-9.4,15
	c1.1,6.9,6.8,11.9,13.6,11.9c6.9,0,12.5-4.9,13.7-11.8c1.1-6.4-2.9-12.9-9.3-15c-0.8-0.3-1.3-0.6-1.5-1.2v-23.7
	c0.2-0.5,0.6-0.7,1.4-0.7c4.9-0.4,9.7-1.5,14.2-3.5c1-0.5,5.3-2.5,9.2-5.2c0.1-0.1,0.2-0.2,0.4-0.3c5.3-3.9,9.7-8.7,12.9-14.5
	c0.5-0.9,1-1,1.9-0.6c4.9,2.3,18.3,10,23.2,12.3c0.9,0.4,1.1,0.9,0.9,1.9c-1.2,7.7,4.5,14.9,12.3,15.6c7.6,0.8,14.7-5.3,15-13
	C187.5,125.8,184.2,120.4,179,118.2z M85.7,17.3c-1.9-4.2-0.1-9.2,4-11.1c4.2-1.9,9.2-0.2,11.1,4c2,4.2,0.1,9.2-4,11.1
	C92.7,23.3,87.7,21.5,85.7,17.3z M13.9,139.2c-4.7,0-8.4-3.8-8.4-8.5c0-4.5,3.8-8.2,8.3-8.2c4.7,0,8.4,3.8,8.4,8.5
	C22.2,135.5,18.3,139.2,13.9,139.2z M51.5,92.3c-0.1-22.1,17.1-40.2,38.8-41.6v9L66.8,73.1c-1.3,0.8-2.1,2.1-2.1,3.6
	c0,1.5,0.8,2.9,2.1,3.6l43,24.8l-16.2,9.4l-20.4-11.8v-3.4c0-4.6-3.8-8.4-8.4-8.4v8.4l0,0v5.8c0,1.5,0.8,2.9,2.1,3.6l23.4,13.5v11.3
	C68.7,132.1,51.5,114.1,51.5,92.3z M101.4,177.4c0,4.7-3.8,8.5-8.5,8.4c-4.5,0-8.2-3.8-8.3-8.3c0-4.6,3.7-8.4,8.3-8.4
	C97.6,169,101.4,172.8,101.4,177.4z M95.9,133.6v-10.7l24.4-14.1c1.3-0.7,2.1-2.1,2.1-3.6c0-1.5-0.8-2.9-2.1-3.6l-43-24.8l16.2-9.4
	L114,79.2v3.4l0,0c0,4.6,3.8,8.4,8.4,8.4v-8.4l0,0v-5.8c0-1.5-0.8-2.9-2.1-3.6L95.9,59v-8.4c21.6,1.5,38.7,19.4,38.8,41.3
	C134.7,113.9,117.5,132.1,95.9,133.6z M173.5,139.2c-4.6,0-8.4-3.7-8.4-8.3c0-4.6,3.7-8.4,8.3-8.4c4.6,0,8.4,3.7,8.4,8.3
	C181.9,135.4,178.1,139.1,173.5,139.2z"/>
</svg>
